<mxfile host="app.diagrams.net" modified="2022-01-24T03:21:18.206Z" agent="5.0 (Macintosh; Intel Mac OS X 10_15_7) AppleWebKit/537.36 (KHTML, like Gecko) Chrome/97.0.4692.71 Safari/537.36" etag="QN4bANCCHsa87FOjxvqB" version="16.4.5" type="github">
  <diagram id="oZl6MHllMCqx0upKN0zs" name="Page-1">
    <mxGraphModel dx="2916" dy="769" grid="1" gridSize="10" guides="1" tooltips="1" connect="1" arrows="1" fold="1" page="1" pageScale="1" pageWidth="850" pageHeight="1100" math="0" shadow="0">
      <root>
        <mxCell id="0" />
        <mxCell id="1" parent="0" />
        <mxCell id="D4O79l3GxW2xjI9EOM5z-32" value="Call" style="edgeStyle=orthogonalEdgeStyle;rounded=0;orthogonalLoop=1;jettySize=auto;html=1;exitX=0.25;exitY=1;exitDx=0;exitDy=0;entryX=0.25;entryY=0;entryDx=0;entryDy=0;fontSize=12;fontStyle=1" edge="1" parent="1" source="D4O79l3GxW2xjI9EOM5z-1" target="D4O79l3GxW2xjI9EOM5z-3">
          <mxGeometry relative="1" as="geometry" />
        </mxCell>
        <mxCell id="D4O79l3GxW2xjI9EOM5z-1" value="Python API" style="rounded=0;whiteSpace=wrap;html=1;fontSize=12;fontStyle=1" vertex="1" parent="1">
          <mxGeometry x="150" y="90" width="120" height="60" as="geometry" />
        </mxCell>
        <mxCell id="D4O79l3GxW2xjI9EOM5z-28" style="edgeStyle=orthogonalEdgeStyle;rounded=0;orthogonalLoop=1;jettySize=auto;html=1;exitX=0.25;exitY=1;exitDx=0;exitDy=0;entryX=0.25;entryY=0;entryDx=0;entryDy=0;fontSize=12;fontStyle=1" edge="1" parent="1" source="D4O79l3GxW2xjI9EOM5z-2" target="D4O79l3GxW2xjI9EOM5z-5">
          <mxGeometry relative="1" as="geometry" />
        </mxCell>
        <mxCell id="D4O79l3GxW2xjI9EOM5z-30" value="Call" style="edgeLabel;html=1;align=center;verticalAlign=middle;resizable=0;points=[];fontSize=12;fontStyle=1" vertex="1" connectable="0" parent="D4O79l3GxW2xjI9EOM5z-28">
          <mxGeometry x="-0.08" y="-1" relative="1" as="geometry">
            <mxPoint as="offset" />
          </mxGeometry>
        </mxCell>
        <mxCell id="D4O79l3GxW2xjI9EOM5z-2" value="Python API" style="rounded=0;whiteSpace=wrap;html=1;fontSize=12;fontStyle=1" vertex="1" parent="1">
          <mxGeometry x="560" y="90" width="120" height="60" as="geometry" />
        </mxCell>
        <mxCell id="D4O79l3GxW2xjI9EOM5z-33" value="Return" style="edgeStyle=orthogonalEdgeStyle;rounded=0;orthogonalLoop=1;jettySize=auto;html=1;exitX=0.75;exitY=0;exitDx=0;exitDy=0;entryX=0.75;entryY=1;entryDx=0;entryDy=0;fontSize=12;fontStyle=1" edge="1" parent="1" source="D4O79l3GxW2xjI9EOM5z-3" target="D4O79l3GxW2xjI9EOM5z-1">
          <mxGeometry relative="1" as="geometry" />
        </mxCell>
        <mxCell id="D4O79l3GxW2xjI9EOM5z-34" style="edgeStyle=orthogonalEdgeStyle;rounded=0;orthogonalLoop=1;jettySize=auto;html=1;exitX=0.5;exitY=1;exitDx=0;exitDy=0;entryX=0.5;entryY=0;entryDx=0;entryDy=0;fontSize=12;fontStyle=1" edge="1" parent="1" source="D4O79l3GxW2xjI9EOM5z-3" target="D4O79l3GxW2xjI9EOM5z-6">
          <mxGeometry relative="1" as="geometry" />
        </mxCell>
        <mxCell id="D4O79l3GxW2xjI9EOM5z-3" value="&lt;span style=&quot;font-size: 12px;&quot;&gt;Python C Extension&lt;/span&gt;" style="rounded=0;whiteSpace=wrap;html=1;fontSize=12;fontStyle=1" vertex="1" parent="1">
          <mxGeometry x="150" y="200" width="120" height="60" as="geometry" />
        </mxCell>
        <mxCell id="D4O79l3GxW2xjI9EOM5z-19" style="edgeStyle=orthogonalEdgeStyle;rounded=0;orthogonalLoop=1;jettySize=auto;html=1;exitX=0.5;exitY=1;exitDx=0;exitDy=0;fontSize=12;fontStyle=1" edge="1" parent="1" source="D4O79l3GxW2xjI9EOM5z-5" target="D4O79l3GxW2xjI9EOM5z-7">
          <mxGeometry relative="1" as="geometry" />
        </mxCell>
        <mxCell id="D4O79l3GxW2xjI9EOM5z-29" style="edgeStyle=orthogonalEdgeStyle;rounded=0;orthogonalLoop=1;jettySize=auto;html=1;exitX=0.75;exitY=0;exitDx=0;exitDy=0;entryX=0.75;entryY=1;entryDx=0;entryDy=0;fontSize=12;fontStyle=1" edge="1" parent="1" source="D4O79l3GxW2xjI9EOM5z-5" target="D4O79l3GxW2xjI9EOM5z-2">
          <mxGeometry relative="1" as="geometry" />
        </mxCell>
        <mxCell id="D4O79l3GxW2xjI9EOM5z-31" value="Return" style="edgeLabel;html=1;align=center;verticalAlign=middle;resizable=0;points=[];fontSize=12;fontStyle=1" vertex="1" connectable="0" parent="D4O79l3GxW2xjI9EOM5z-29">
          <mxGeometry y="3" relative="1" as="geometry">
            <mxPoint as="offset" />
          </mxGeometry>
        </mxCell>
        <mxCell id="D4O79l3GxW2xjI9EOM5z-5" value="Python C Extension" style="rounded=0;whiteSpace=wrap;html=1;fontSize=12;fontStyle=1" vertex="1" parent="1">
          <mxGeometry x="560" y="200" width="120" height="60" as="geometry" />
        </mxCell>
        <mxCell id="D4O79l3GxW2xjI9EOM5z-35" value="True" style="edgeStyle=orthogonalEdgeStyle;rounded=0;orthogonalLoop=1;jettySize=auto;html=1;exitX=0.5;exitY=1;exitDx=0;exitDy=0;entryX=0.5;entryY=0;entryDx=0;entryDy=0;fontSize=12;fontStyle=1" edge="1" parent="1" source="D4O79l3GxW2xjI9EOM5z-6" target="D4O79l3GxW2xjI9EOM5z-9">
          <mxGeometry relative="1" as="geometry" />
        </mxCell>
        <mxCell id="D4O79l3GxW2xjI9EOM5z-36" value="False" style="edgeStyle=orthogonalEdgeStyle;rounded=0;orthogonalLoop=1;jettySize=auto;html=1;exitX=0;exitY=0.5;exitDx=0;exitDy=0;entryX=0.5;entryY=0;entryDx=0;entryDy=0;fontSize=12;fontStyle=1" edge="1" parent="1" source="D4O79l3GxW2xjI9EOM5z-6" target="D4O79l3GxW2xjI9EOM5z-12">
          <mxGeometry relative="1" as="geometry" />
        </mxCell>
        <mxCell id="D4O79l3GxW2xjI9EOM5z-6" value="ComputeRequireGrad" style="rhombus;whiteSpace=wrap;html=1;fontSize=12;fontStyle=1" vertex="1" parent="1">
          <mxGeometry x="120" y="320" width="180" height="50" as="geometry" />
        </mxCell>
        <mxCell id="D4O79l3GxW2xjI9EOM5z-20" value="Has Autograd Dispatch Key" style="edgeStyle=orthogonalEdgeStyle;rounded=0;orthogonalLoop=1;jettySize=auto;html=1;exitX=0.25;exitY=1;exitDx=0;exitDy=0;entryX=0.5;entryY=0;entryDx=0;entryDy=0;fontSize=12;fontStyle=1" edge="1" parent="1" source="D4O79l3GxW2xjI9EOM5z-7" target="D4O79l3GxW2xjI9EOM5z-11">
          <mxGeometry relative="1" as="geometry" />
        </mxCell>
        <mxCell id="D4O79l3GxW2xjI9EOM5z-21" style="edgeStyle=orthogonalEdgeStyle;rounded=0;orthogonalLoop=1;jettySize=auto;html=1;exitX=0.75;exitY=1;exitDx=0;exitDy=0;entryX=0.5;entryY=0;entryDx=0;entryDy=0;fontSize=12;fontStyle=1" edge="1" parent="1" source="D4O79l3GxW2xjI9EOM5z-7" target="D4O79l3GxW2xjI9EOM5z-8">
          <mxGeometry relative="1" as="geometry" />
        </mxCell>
        <mxCell id="D4O79l3GxW2xjI9EOM5z-22" value="Has no Autograd Dispatch Key" style="edgeLabel;html=1;align=center;verticalAlign=middle;resizable=0;points=[];fontSize=12;fontStyle=1" vertex="1" connectable="0" parent="D4O79l3GxW2xjI9EOM5z-21">
          <mxGeometry x="-0.4857" y="-2" relative="1" as="geometry">
            <mxPoint as="offset" />
          </mxGeometry>
        </mxCell>
        <mxCell id="D4O79l3GxW2xjI9EOM5z-7" value="Dispatch" style="rounded=0;whiteSpace=wrap;html=1;fontSize=12;fontStyle=1" vertex="1" parent="1">
          <mxGeometry x="460" y="310" width="320" height="50" as="geometry" />
        </mxCell>
        <mxCell id="D4O79l3GxW2xjI9EOM5z-26" value="Return" style="edgeStyle=orthogonalEdgeStyle;rounded=0;orthogonalLoop=1;jettySize=auto;html=1;exitX=1;exitY=0.5;exitDx=0;exitDy=0;entryX=1;entryY=0.5;entryDx=0;entryDy=0;fontSize=12;fontStyle=1" edge="1" parent="1" source="D4O79l3GxW2xjI9EOM5z-8" target="D4O79l3GxW2xjI9EOM5z-5">
          <mxGeometry relative="1" as="geometry" />
        </mxCell>
        <mxCell id="D4O79l3GxW2xjI9EOM5z-46" value="Return" style="edgeStyle=orthogonalEdgeStyle;rounded=0;orthogonalLoop=1;jettySize=auto;html=1;exitX=0;exitY=0.25;exitDx=0;exitDy=0;entryX=1;entryY=0.25;entryDx=0;entryDy=0;fontSize=12;fontStyle=1" edge="1" parent="1" source="D4O79l3GxW2xjI9EOM5z-8" target="D4O79l3GxW2xjI9EOM5z-11">
          <mxGeometry relative="1" as="geometry" />
        </mxCell>
        <mxCell id="D4O79l3GxW2xjI9EOM5z-8" value="AtenLIb" style="rounded=0;whiteSpace=wrap;html=1;fontSize=12;fontStyle=1" vertex="1" parent="1">
          <mxGeometry x="660" y="410" width="120" height="60" as="geometry" />
        </mxCell>
        <mxCell id="D4O79l3GxW2xjI9EOM5z-37" style="edgeStyle=orthogonalEdgeStyle;rounded=0;orthogonalLoop=1;jettySize=auto;html=1;exitX=0;exitY=0.5;exitDx=0;exitDy=0;entryX=1;entryY=0.5;entryDx=0;entryDy=0;fontSize=12;fontStyle=1" edge="1" parent="1" source="D4O79l3GxW2xjI9EOM5z-9" target="D4O79l3GxW2xjI9EOM5z-12">
          <mxGeometry relative="1" as="geometry" />
        </mxCell>
        <mxCell id="D4O79l3GxW2xjI9EOM5z-43" value="Call" style="edgeLabel;html=1;align=center;verticalAlign=middle;resizable=0;points=[];fontSize=12;fontStyle=1" vertex="1" connectable="0" parent="D4O79l3GxW2xjI9EOM5z-37">
          <mxGeometry x="0.0333" y="-1" relative="1" as="geometry">
            <mxPoint as="offset" />
          </mxGeometry>
        </mxCell>
        <mxCell id="D4O79l3GxW2xjI9EOM5z-45" value="Return" style="edgeStyle=orthogonalEdgeStyle;rounded=0;orthogonalLoop=1;jettySize=auto;html=1;exitX=1;exitY=0.25;exitDx=0;exitDy=0;entryX=1;entryY=0.5;entryDx=0;entryDy=0;fontSize=12;fontStyle=1" edge="1" parent="1" source="D4O79l3GxW2xjI9EOM5z-9" target="D4O79l3GxW2xjI9EOM5z-3">
          <mxGeometry relative="1" as="geometry">
            <Array as="points">
              <mxPoint x="350" y="465" />
              <mxPoint x="350" y="230" />
            </Array>
          </mxGeometry>
        </mxCell>
        <mxCell id="D4O79l3GxW2xjI9EOM5z-9" value="AutoGradAPI" style="rounded=0;whiteSpace=wrap;html=1;fontSize=12;fontStyle=1" vertex="1" parent="1">
          <mxGeometry x="150" y="450" width="120" height="60" as="geometry" />
        </mxCell>
        <mxCell id="D4O79l3GxW2xjI9EOM5z-23" style="edgeStyle=orthogonalEdgeStyle;rounded=0;orthogonalLoop=1;jettySize=auto;html=1;exitX=0.5;exitY=1;exitDx=0;exitDy=0;entryX=0.25;entryY=0;entryDx=0;entryDy=0;fontSize=12;fontStyle=1" edge="1" parent="1" source="D4O79l3GxW2xjI9EOM5z-11" target="D4O79l3GxW2xjI9EOM5z-13">
          <mxGeometry relative="1" as="geometry" />
        </mxCell>
        <mxCell id="D4O79l3GxW2xjI9EOM5z-24" value="Mask Autograd key" style="edgeLabel;html=1;align=center;verticalAlign=middle;resizable=0;points=[];fontSize=12;fontStyle=1" vertex="1" connectable="0" parent="D4O79l3GxW2xjI9EOM5z-23">
          <mxGeometry x="-0.2839" y="2" relative="1" as="geometry">
            <mxPoint x="1" y="1" as="offset" />
          </mxGeometry>
        </mxCell>
        <mxCell id="D4O79l3GxW2xjI9EOM5z-48" style="edgeStyle=orthogonalEdgeStyle;rounded=0;orthogonalLoop=1;jettySize=auto;html=1;exitX=0;exitY=0.25;exitDx=0;exitDy=0;entryX=0;entryY=0.5;entryDx=0;entryDy=0;fontSize=12;fontStyle=1" edge="1" parent="1" source="D4O79l3GxW2xjI9EOM5z-11" target="D4O79l3GxW2xjI9EOM5z-5">
          <mxGeometry relative="1" as="geometry" />
        </mxCell>
        <mxCell id="D4O79l3GxW2xjI9EOM5z-49" value="Return" style="edgeLabel;html=1;align=center;verticalAlign=middle;resizable=0;points=[];fontSize=12;fontStyle=1" vertex="1" connectable="0" parent="D4O79l3GxW2xjI9EOM5z-48">
          <mxGeometry x="-0.0687" y="2" relative="1" as="geometry">
            <mxPoint as="offset" />
          </mxGeometry>
        </mxCell>
        <mxCell id="D4O79l3GxW2xjI9EOM5z-11" value="AutoGradAPI" style="rounded=0;whiteSpace=wrap;html=1;fontSize=12;fontStyle=1" vertex="1" parent="1">
          <mxGeometry x="460" y="410" width="120" height="60" as="geometry" />
        </mxCell>
        <mxCell id="D4O79l3GxW2xjI9EOM5z-38" style="edgeStyle=orthogonalEdgeStyle;rounded=0;orthogonalLoop=1;jettySize=auto;html=1;exitX=0.5;exitY=1;exitDx=0;exitDy=0;entryX=0.5;entryY=0;entryDx=0;entryDy=0;fontSize=12;fontStyle=1" edge="1" parent="1" source="D4O79l3GxW2xjI9EOM5z-12" target="D4O79l3GxW2xjI9EOM5z-18">
          <mxGeometry relative="1" as="geometry" />
        </mxCell>
        <mxCell id="D4O79l3GxW2xjI9EOM5z-42" style="edgeStyle=orthogonalEdgeStyle;rounded=0;orthogonalLoop=1;jettySize=auto;html=1;exitX=1;exitY=0.25;exitDx=0;exitDy=0;entryX=0;entryY=0.25;entryDx=0;entryDy=0;fontSize=12;fontStyle=1" edge="1" parent="1" source="D4O79l3GxW2xjI9EOM5z-12" target="D4O79l3GxW2xjI9EOM5z-9">
          <mxGeometry relative="1" as="geometry" />
        </mxCell>
        <mxCell id="D4O79l3GxW2xjI9EOM5z-44" value="Return" style="edgeLabel;html=1;align=center;verticalAlign=middle;resizable=0;points=[];fontSize=12;fontStyle=1" vertex="1" connectable="0" parent="D4O79l3GxW2xjI9EOM5z-42">
          <mxGeometry x="-0.3333" y="-1" relative="1" as="geometry">
            <mxPoint as="offset" />
          </mxGeometry>
        </mxCell>
        <mxCell id="D4O79l3GxW2xjI9EOM5z-12" value="C++ API ChooseKernel" style="rounded=0;whiteSpace=wrap;html=1;fontSize=12;fontStyle=1" vertex="1" parent="1">
          <mxGeometry x="-30" y="450" width="120" height="60" as="geometry" />
        </mxCell>
        <mxCell id="D4O79l3GxW2xjI9EOM5z-25" value="Choose Aten lib" style="edgeStyle=orthogonalEdgeStyle;rounded=0;orthogonalLoop=1;jettySize=auto;html=1;exitX=0.75;exitY=0;exitDx=0;exitDy=0;entryX=0.5;entryY=1;entryDx=0;entryDy=0;fontSize=12;fontStyle=1" edge="1" parent="1" source="D4O79l3GxW2xjI9EOM5z-13" target="D4O79l3GxW2xjI9EOM5z-8">
          <mxGeometry relative="1" as="geometry" />
        </mxCell>
        <mxCell id="D4O79l3GxW2xjI9EOM5z-13" value="Redispatch" style="rounded=0;whiteSpace=wrap;html=1;fontSize=12;fontStyle=1" vertex="1" parent="1">
          <mxGeometry x="460" y="525" width="320" height="50" as="geometry" />
        </mxCell>
        <mxCell id="D4O79l3GxW2xjI9EOM5z-40" style="edgeStyle=orthogonalEdgeStyle;rounded=0;orthogonalLoop=1;jettySize=auto;html=1;exitX=0;exitY=0.5;exitDx=0;exitDy=0;entryX=0.25;entryY=1;entryDx=0;entryDy=0;fontSize=12;fontStyle=1" edge="1" parent="1" source="D4O79l3GxW2xjI9EOM5z-18" target="D4O79l3GxW2xjI9EOM5z-12">
          <mxGeometry relative="1" as="geometry" />
        </mxCell>
        <mxCell id="D4O79l3GxW2xjI9EOM5z-41" value="Return" style="edgeLabel;html=1;align=center;verticalAlign=middle;resizable=0;points=[];fontSize=12;fontStyle=1" vertex="1" connectable="0" parent="D4O79l3GxW2xjI9EOM5z-40">
          <mxGeometry x="-0.1667" y="-1" relative="1" as="geometry">
            <mxPoint as="offset" />
          </mxGeometry>
        </mxCell>
        <mxCell id="D4O79l3GxW2xjI9EOM5z-18" value="Kernel" style="rounded=0;whiteSpace=wrap;html=1;fontSize=12;fontStyle=1" vertex="1" parent="1">
          <mxGeometry x="150" y="570" width="120" height="60" as="geometry" />
        </mxCell>
      </root>
    </mxGraphModel>
  </diagram>
</mxfile>
